<svg xmlns="http://www.w3.org/2000/svg" viewBox="0 0 100 100">
  <rect width="100" height="100" rx="22" fill="#464E7E"/>
  <g transform="translate(34.5,-6.05) scale(0.4295)" fill="#ffffff">
    <path d="M0,191.3v-41.4H6c7,23.9,19.4,35.8,37.3,35.8,7.8,0,13.6-2.4,17.4-7.1,3.9-4.7,5.8-9.9,5.8-15.5,0-6.6-2.1-11.9-6.1-16.1-4.2-4.2-12.4-9.3-24.4-15.2-12.7-6.2-21.8-12.4-27.4-18.4C3.1,107.5,.3,100.1,.3,91.4s3-16.2,8.9-23.7c5.9-7.6,14.3-11.4,25.1-11.4s20,4.5,27.2,13.4c1.5-1.5,3.5-5.3,6-11.2h5.7v38.9h-5.7c-2.1-9.3-6.1-17.3-12-24-5.8-6.8-12.8-10.1-20.8-10.1-6.2,0-11.1,1.9-14.9,5.7s-5.7,8.2-5.7,13.2c0,5.5,2.1,10.3,6.3,14.3,4.1,4.1,11.9,8.8,23.5,14,17.4,7.9,28.1,15.6,32,23.1,3.9,7.6,5.8,14.9,5.8,21.8,0,11-3.6,19.9-10.9,26.8-7.2,6.9-16.2,10.3-27.2,10.3-11.6,0-21.9-4.8-30.9-14.3-2.8,3.1-5,7.5-6.8,13.2l-5.9-.1H0Z"/>
  </g>
</svg>
